<svg width="128" height="128" viewBox="0 0 128 128" fill="none" xmlns="http://www.w3.org/2000/svg">
<rect width="128" height="128" rx="64" fill="white"/>
<circle cx="64" cy="64" r="52" fill="black"/>
<path d="M42.578 85.744C40.842 85.744 39.2507 85.5787 37.804 85.248C36.3573 84.9587 35.1587 84.628 34.208 84.256C33.2987 83.884 32.844 83.6773 32.844 83.636L32.534 83.016C32.5753 82.768 32.658 82.148 32.782 81.156C32.906 80.164 33.0093 78.8827 33.092 77.312C33.216 75.7 33.278 74.0053 33.278 72.228L36.068 71.918C36.068 75.018 36.2747 77.312 36.688 78.8C37.1013 80.288 37.866 81.3213 38.982 81.9C40.098 82.4373 41.8133 82.706 44.128 82.706C46.732 82.706 48.8193 82.1067 50.39 80.908C51.9607 79.668 52.746 77.994 52.746 75.886C52.746 74.646 52.312 73.53 51.444 72.538C50.6173 71.546 49.6253 70.6987 48.468 69.996C47.3107 69.2933 45.5953 68.3427 43.322 67.144C41.1727 66.028 39.416 65.0153 38.052 64.106C36.688 63.1553 35.5307 62.0393 34.58 60.758C33.6707 59.4767 33.216 57.9887 33.216 56.294C33.216 54.1447 33.836 52.202 35.076 50.466C36.3573 48.6887 38.0727 47.304 40.222 46.312C42.4127 45.2787 44.8307 44.762 47.476 44.762C49.1293 44.762 50.6587 44.886 52.064 45.134C53.4693 45.3407 54.5853 45.568 55.412 45.816C56.2387 46.064 56.7553 46.2293 56.962 46.312L57.148 46.684C57.1067 46.932 57.0033 47.5107 56.838 48.42C56.6727 49.3293 56.4867 50.59 56.28 52.202C56.0733 53.814 55.908 55.4673 55.784 57.162L53.366 57.41L52.994 57.1C53.0353 56.9347 53.0767 56.5627 53.118 55.984C53.1593 55.364 53.18 54.6613 53.18 53.876C53.18 51.6853 52.6427 50.1767 51.568 49.35C50.4933 48.5233 48.5713 48.11 45.802 48.11C43.5287 48.11 41.648 48.6887 40.16 49.846C38.7133 50.962 37.99 52.3673 37.99 54.062C37.99 55.7153 38.6927 57.162 40.098 58.402C41.5447 59.6007 43.6527 60.9233 46.422 62.37C49.1087 63.734 51.1547 64.8707 52.56 65.78C53.9653 66.648 55.2053 67.7433 56.28 69.066C57.3547 70.3887 57.892 71.918 57.892 73.654C57.892 75.9687 57.2307 78.056 55.908 79.916C54.6267 81.7347 52.8287 83.1607 50.514 84.194C48.1993 85.2273 45.554 85.744 42.578 85.744ZM82.275 85.186L82.523 82.768C84.631 82.6027 86.0776 82.3547 86.863 82.024C87.6483 81.6933 88.041 81.156 88.041 80.412C88.041 79.5853 87.855 78.5933 87.483 77.436L85.437 70.678C84.445 70.6367 82.2956 70.616 78.989 70.616C77.005 70.616 74.7523 70.7813 72.231 71.112L69.937 77.56C69.565 78.676 69.379 79.482 69.379 79.978C69.379 80.8873 69.6683 81.5487 70.247 81.962C70.8256 82.334 71.7763 82.52 73.099 82.52H76.633L76.757 82.768L76.385 85.434C75.889 85.3927 74.7523 85.31 72.975 85.186C71.1976 85.062 69.4616 85 67.767 85C66.2376 85 64.8116 85.0207 63.489 85.062C62.2076 85.1033 61.3603 85.1447 60.947 85.186L61.443 82.272C62.6003 82.148 63.5303 81.7553 64.233 81.094C64.9356 80.3913 65.6176 79.1927 66.279 77.498L78.369 45.816L82.275 44.762H82.771C83.019 45.754 83.639 48.048 84.631 51.644C85.6643 55.24 86.9043 59.4973 88.351 64.416C89.839 69.3347 91.265 73.8607 92.629 77.994C93.125 79.5233 93.7863 80.598 94.613 81.218C95.4396 81.838 96.7623 82.2307 98.581 82.396L98.705 82.644L98.271 85.186C97.775 85.186 96.8656 85.1447 95.543 85.062C94.2616 85.0207 92.9803 85 91.699 85C89.715 85 87.793 85.0827 85.933 85.248C84.1143 85.4133 82.957 85.5373 82.461 85.62L82.275 85.186ZM78.803 68.074C80.291 68.074 82.213 67.9707 84.569 67.764L79.671 51.52H79.237L73.347 68.074H78.803Z" fill="white"/>
</svg>
